<svg width="226" height="190" viewBox="0 0 226 185" fill="none" xmlns="http://www.w3.org/2000/svg">
<path d="M43.5 95.5L13 97.5V158H24.5L26 150L32 142.5L38.5 139H49.5L61 142.5L66 156.5H159.5L165.5 144.5L173.5 139H182.5L196 144.5L205 156.5H215.5L211.5 103L173.5 92L154 47H61L43.5 95.5Z" fill="#F5CE42"/>
<path d="M143 59.5H72.5L61 94.5H157L143 59.5Z" fill="white"/>
<path d="M210.074 98.1295L177.692 92.7171C177.077 92.6093 176.5 92.3396 176.023 91.9356C175.545 91.5316 175.183 91.0078 174.973 90.4177L160.389 49.4888C159.648 47.4289 158.29 45.6479 156.502 44.3883C154.714 43.1287 152.582 42.4516 150.396 42.4492H65.3634C63.0587 42.4564 60.8184 43.2117 58.9785 44.6021C57.1385 45.9925 55.7981 47.9429 55.1581 50.161L44.4231 87.8353L23.9772 61.5163C23.651 61.0852 23.2291 60.7361 22.7449 60.4967C22.2607 60.2572 21.7275 60.134 21.1875 60.1367H7.0625V67.2117H19.4572L38.7025 91.9742H17.6562C14.8492 91.9826 12.1595 93.1034 10.1746 95.0918C8.1897 97.0802 7.07088 99.7747 7.0625 102.587V152.112C7.07088 154.924 8.1897 157.618 10.1746 159.607C12.1595 161.595 14.8492 162.716 17.6562 162.724H21.47C22.3143 168.614 25.2499 174.001 29.7382 177.897C34.2266 181.794 39.9669 183.939 45.9062 183.939C51.8456 183.939 57.5859 181.794 62.0743 177.897C66.5626 174.001 69.4982 168.614 70.3425 162.724H155.658C156.502 168.614 159.437 174.001 163.926 177.897C168.414 181.794 174.154 183.939 180.094 183.939C186.033 183.939 191.773 181.794 196.262 177.897C200.75 174.001 203.686 168.614 204.53 162.724H208.344C211.151 162.716 213.84 161.595 215.825 159.607C217.81 157.618 218.929 154.924 218.937 152.112V108.565C218.945 106.053 218.056 103.62 216.431 101.707C214.805 99.793 212.551 98.5243 210.074 98.1295ZM63.2094 162.724C62.749 164.933 61.8742 167.033 60.6316 168.915L58.4069 166.686L53.3925 171.709L55.6172 173.938C53.739 175.183 51.642 176.059 49.4375 176.52V173.337H42.375V176.52C40.1705 176.059 38.0735 175.183 36.1953 173.938L38.42 171.709L33.4056 166.686L31.1809 168.915C29.9383 167.033 29.0635 164.933 28.6031 162.724H31.7812V155.649H28.6031C29.0635 153.441 29.9383 151.34 31.1809 149.459L33.4056 151.687L38.42 146.664L36.1953 144.435C38.0735 143.19 40.1705 142.314 42.375 141.853V145.037H49.4375V141.853C51.642 142.314 53.739 143.19 55.6172 144.435L53.3925 146.664L58.4069 151.687L60.6316 149.459C61.8742 151.34 62.749 153.441 63.2094 155.649H60.0312V162.724H63.2094ZM109.469 91.9742H64.7984L73.3087 63.6742H109.469V91.9742ZM197.397 162.724C196.936 164.933 196.062 167.033 194.819 168.915L192.594 166.686L187.58 171.709L189.805 173.938C187.926 175.183 185.829 176.059 183.625 176.52V173.337H176.562V176.52C174.358 176.059 172.261 175.183 170.383 173.938L172.607 171.709L167.593 166.686L165.368 168.915C164.126 167.033 163.251 164.933 162.791 162.724H165.969V155.649H162.791C163.251 153.441 164.126 151.34 165.368 149.459L167.593 151.687L172.607 146.664L170.383 144.435C172.261 143.19 174.358 142.314 176.562 141.853V145.037H183.625V141.853C185.829 142.314 187.926 143.19 189.805 144.435L187.58 146.664L192.594 151.687L194.819 149.459C196.062 151.34 196.936 153.441 197.397 155.649H194.219V162.724H197.397ZM211.875 134.424H201.281V141.499H211.875V152.112C211.875 153.05 211.503 153.95 210.841 154.613C210.178 155.277 209.28 155.649 208.344 155.649H204.53C203.686 149.76 200.75 144.373 196.262 140.476C191.773 136.579 186.033 134.434 180.094 134.434C174.154 134.434 168.414 136.579 163.926 140.476C159.437 144.373 156.502 149.76 155.658 155.649H116.531V99.0492H158.906C159.483 99.0498 160.051 98.9087 160.561 98.6384C161.071 98.3681 161.507 97.9767 161.831 97.4986C162.155 97.0204 162.357 96.47 162.42 95.8954C162.483 95.3209 162.404 94.7398 162.19 94.2028L148.065 58.8278C147.804 58.1696 147.351 57.6053 146.765 57.208C146.18 56.8106 145.488 56.5985 144.781 56.5992H70.6956C69.9372 56.6014 69.1992 56.8463 68.5894 57.2981C67.9796 57.7499 67.5298 58.385 67.3056 59.1108L56.6413 94.4858C56.4867 95.0187 56.4572 95.5802 56.5552 96.1264C56.6532 96.6726 56.8761 97.1886 57.2062 97.6342C57.5352 98.0736 57.9617 98.4302 58.452 98.6758C58.9424 98.9214 59.483 99.0492 60.0312 99.0492H109.469V155.649H70.3425C69.4982 149.76 66.5626 144.373 62.0743 140.476C57.5859 136.579 51.8456 134.434 45.9062 134.434C39.9669 134.434 34.2266 136.579 29.7382 140.476C25.2499 144.373 22.3143 149.76 21.47 155.649H17.6562C16.7197 155.649 15.8215 155.277 15.1593 154.613C14.497 153.95 14.125 153.05 14.125 152.112V130.887H24.7187V123.812H14.125V116.737H24.7187V109.662H14.125V102.587C14.125 101.649 14.497 100.749 15.1593 100.085C15.8215 99.4219 16.7197 99.0492 17.6562 99.0492H40.5741C42.8788 99.0421 45.1191 98.2867 46.959 96.8963C48.799 95.5059 50.1394 93.5555 50.7794 91.3375L61.9734 52.0712C62.1874 51.3364 62.6334 50.691 63.2447 50.2317C63.8559 49.7725 64.5994 49.5242 65.3634 49.5242H150.396C151.121 49.5276 151.828 49.753 152.421 50.1704C153.014 50.5877 153.466 51.177 153.715 51.859L168.299 92.7878C168.942 94.5684 170.046 96.1456 171.498 97.3578C172.951 98.57 174.698 99.3735 176.562 99.686L208.944 105.098C209.675 105.222 210.344 105.583 210.851 106.124H201.281C198.472 106.124 195.777 107.242 193.79 109.233C191.804 111.223 190.687 113.922 190.687 116.737C190.687 119.551 191.804 122.251 193.79 124.241C195.777 126.231 198.472 127.349 201.281 127.349H211.875V134.424ZM116.531 91.9742V63.6742H142.38L153.68 91.9742H116.531ZM211.875 120.274H201.281C200.345 120.274 199.446 119.902 198.784 119.238C198.122 118.575 197.75 117.675 197.75 116.737C197.75 115.799 198.122 114.899 198.784 114.235C199.446 113.572 200.345 113.199 201.281 113.199H211.875V120.274Z" fill="black"/>
<path d="M137.719 106.125H123.594V113.2H137.719V106.125Z" fill="black"/>
<path d="M60.0312 106.125H45.9062V113.2H60.0312V106.125Z" fill="black"/>
<path d="M45.9063 148.574C43.811 148.574 41.7628 149.197 40.0207 150.363C38.2786 151.529 36.9207 153.186 36.1189 155.126C35.3171 157.065 35.1073 159.198 35.5161 161.257C35.9248 163.316 36.9338 165.207 38.4153 166.691C39.8969 168.175 41.7845 169.186 43.8395 169.595C45.8945 170.005 48.0246 169.795 49.9603 168.991C51.8961 168.188 53.5506 166.828 54.7146 165.083C55.8787 163.338 56.5 161.286 56.5 159.187C56.5 156.372 55.3839 153.673 53.3972 151.683C51.4105 149.692 48.7159 148.574 45.9063 148.574ZM45.9063 162.724C45.2078 162.724 44.5251 162.517 43.9444 162.128C43.3637 161.739 42.9111 161.187 42.6438 160.54C42.3765 159.894 42.3066 159.183 42.4429 158.497C42.5791 157.81 42.9154 157.18 43.4093 156.685C43.9031 156.191 44.5323 155.854 45.2173 155.717C45.9023 155.581 46.6124 155.651 47.2576 155.919C47.9029 156.186 48.4544 156.64 48.8424 157.221C49.2304 157.803 49.4375 158.487 49.4375 159.187C49.4375 160.125 49.0655 161.025 48.4032 161.688C47.741 162.352 46.8428 162.724 45.9063 162.724Z" fill="black"/>
<path d="M180.094 148.574C177.999 148.574 175.95 149.197 174.208 150.363C172.466 151.529 171.108 153.186 170.306 155.126C169.505 157.065 169.295 159.198 169.704 161.257C170.112 163.316 171.121 165.207 172.603 166.691C174.084 168.175 175.972 169.186 178.027 169.595C180.082 170.005 182.212 169.795 184.148 168.991C186.084 168.188 187.738 166.828 188.902 165.083C190.066 163.338 190.688 161.286 190.688 159.187C190.688 156.372 189.571 153.673 187.585 151.683C185.598 149.692 182.903 148.574 180.094 148.574ZM180.094 162.724C179.395 162.724 178.713 162.517 178.132 162.128C177.551 161.739 177.099 161.187 176.831 160.54C176.564 159.894 176.494 159.183 176.63 158.497C176.767 157.81 177.103 157.18 177.597 156.685C178.091 156.191 178.72 155.854 179.405 155.717C180.09 155.581 180.8 155.651 181.445 155.919C182.09 156.186 182.642 156.64 183.03 157.221C183.418 157.803 183.625 158.487 183.625 159.187C183.625 160.125 183.253 161.025 182.591 161.688C181.928 162.352 181.03 162.724 180.094 162.724Z" fill="black"/>
</svg>
