<svg width="261" height="55" viewBox="0 0 261 55" fill="none" xmlns="http://www.w3.org/2000/svg">
<path d="M61.3594 21.1289H72.4103C79.1561 21.1289 81.8703 23.6489 81.8703 29.7331C81.8703 33.9609 80.5509 36.4809 77.4504 37.6042L82.8391 47.4922H74.7361L70.3538 38.3036H68.4935V47.4922H61.3594V21.1289ZM71.6337 32.7206C73.9219 32.7206 74.7738 31.8668 74.7738 29.7331C74.7738 27.5637 73.9219 26.7118 71.6337 26.7118H68.4935V32.7206H71.6337Z" fill="black"/>
<path d="M86.1348 21.1289H104.629V26.906H93.2689V31.3239H102.691V36.9068H93.2689V41.7151H105.017V47.4922H86.1348V21.1289Z" fill="black"/>
<path d="M114.598 21.1289H122.235L130.532 47.4922H123.049L121.77 42.8028H114.713L113.435 47.4922H106.301L114.598 21.1289ZM120.373 37.2951L118.241 28.7247L116.109 37.2951H120.373Z" fill="black"/>
<path d="M132.805 21.1289H139.939V41.6002H150.134V47.4922H132.805V21.1289Z" fill="black"/>
<path d="M161.613 27.3562H167.585L167.739 29.5275C169.213 27.6672 170.958 26.8906 173.362 26.8906C175.842 26.8906 177.704 27.7445 178.75 29.4503C180.264 27.6276 182.047 26.8906 184.41 26.8906C188.676 26.8906 190.962 29.2561 190.962 33.9079V47.7106H183.947V34.6052C183.947 33.3274 183.364 32.6677 182.279 32.6677C181.193 32.6677 180.456 33.3274 179.796 34.6449V47.7106H172.779V34.6052C172.779 33.3274 172.159 32.6677 171.113 32.6677C170.027 32.6677 169.251 33.3274 168.631 34.6052V47.7106H161.613V27.3562Z" fill="black"/>
<path d="M193.303 41.8563C193.303 37.476 195.977 35.267 201.6 35.267H204.391V34.53C204.391 32.7073 203.888 31.9307 202.491 31.9307C201.251 31.9307 200.591 32.5508 200.477 33.9099H193.808C194.117 29.1789 196.831 26.8906 202.723 26.8906C208.734 26.8906 211.411 29.2561 211.411 34.6845V47.7126H205.439L205.245 45.3867C203.965 47.2847 202.065 48.1762 199.585 48.1762C195.629 48.1762 193.303 45.9296 193.303 41.8563ZM204.391 41.6641V38.9103H202.919C200.863 38.9103 199.971 39.6849 199.971 41.1213C199.971 42.4388 200.786 43.1381 202.026 43.1381C203.034 43.1381 203.85 42.6329 204.391 41.6641Z" fill="black"/>
<path d="M212.893 49.5655H213.748C214.832 49.5655 215.141 49.2168 215.141 47.9766V27.3488H222.16V48.5175C222.16 52.8998 220.492 54.7601 216.538 54.7601H212.893V49.5655ZM215.066 19.4004H222.238V24.906H215.066V19.4004Z" fill="black"/>
<path d="M225.568 39.5304V35.5384C225.568 29.7217 228.669 26.8906 235.066 26.8906C241.465 26.8906 244.566 29.7217 244.566 35.5384V39.5304C244.566 45.3471 241.465 48.1762 235.066 48.1762C228.669 48.1762 225.568 45.3471 225.568 39.5304ZM237.546 39.4135V35.6533C237.546 33.0956 236.811 32.2041 235.066 32.2041C233.321 32.2041 232.584 33.0956 232.584 35.6533V39.4135C232.584 42.0128 233.321 42.8667 235.066 42.8667C236.811 42.8667 237.546 42.0128 237.546 39.4135Z" fill="black"/>
<path d="M248.039 27.2789H254.01L254.244 30.6905C255.019 28.0555 256.53 26.8906 259.128 26.8906H260.718V33.1709H259.595C256.841 33.1709 255.524 34.102 255.058 36.313V47.6333H248.039V27.2789Z" fill="black"/>
<path d="M42.9382 7.76455V3.30694H47.2671V0.386719H35.4316V47.7106H47.2671V7.76455H42.9382Z" fill="black"/>
<path d="M28.9576 35.3855V30.9259H33.437V14.2148H21.6035V47.6389H33.437V35.3855H28.9576Z" fill="black"/>
<path d="M21.5747 32.9592L13.8006 29.7715L0.285156 38.5559L2.41887 41.8407L14.1711 34.2053L21.5747 37.1949V32.9592Z" fill="black"/>
<path d="M14.4684 35.5332L6.62305 40.6307V47.4855H21.7432V38.4713L21.6164 38.4198L14.4684 35.5332Z" fill="black"/>
</svg>
