<svg width="329" height="55" viewBox="0 0 329 55" fill="none" xmlns="http://www.w3.org/2000/svg">
<path fill-rule="evenodd" clip-rule="evenodd" d="M67.2124 53.6873V25.6889L42.0284 0.511719L30.2012 12.3372L39.2072 21.3313L42.0284 18.5084L54.4836 30.9584V53.6873H67.2124Z" fill="#000000"/>
<path fill-rule="evenodd" clip-rule="evenodd" d="M0 53.5766V33.4944L19.2884 14.2009V14.0059H28.4894V14.2009L47.7778 33.4944V53.5766H35.0609L35.0489 38.7639L23.8889 27.609L12.7289 38.7639L12.7169 53.5766H0Z" fill="#000000"/>
<path d="M91.7908 43.8675C93.8575 43.8675 95.4281 44.2507 96.5025 45.0138C97.5786 45.7785 98.1158 46.9351 98.1158 48.48C98.1158 49.3372 97.9807 50.1105 97.7121 50.7983C97.4435 51.4877 97.0158 52.0677 96.4272 52.5382C95.8387 53.0087 95.0859 53.3697 94.1723 53.6212C93.2553 53.8727 92.1586 53.9993 90.8823 53.9993H75.1816L78.5332 49.6639H91.286C91.9071 49.6639 92.3605 49.5681 92.6462 49.3748C92.9319 49.1815 93.0756 48.8667 93.0756 48.4304C93.0756 47.9924 92.9319 47.6828 92.6462 47.498C92.3605 47.3115 91.9071 47.2191 91.286 47.2191H82.1107C81.0191 47.2191 80.0782 47.1028 79.2877 46.8667C78.499 46.6323 77.8455 46.3055 77.3219 45.8846C76.8018 45.4638 76.4169 44.9556 76.1637 44.3603C75.9122 43.7632 75.7856 43.1027 75.7856 42.3808C75.7856 41.5921 75.9242 40.8735 76.2013 40.2251C76.4802 39.5801 76.9079 39.0292 77.4862 38.5758C78.0662 38.1207 78.8138 37.77 79.7291 37.5168C80.6462 37.2636 81.7428 37.1387 83.0191 37.1387H97.6625L94.3109 41.5236H82.6171C82.0114 41.5236 81.5615 41.6092 81.2672 41.7751C80.9729 41.9445 80.8258 42.2456 80.8258 42.6836C80.8258 43.1199 80.9729 43.4278 81.2672 43.6023C81.5615 43.7803 82.0114 43.8675 82.6171 43.8675H91.7908Z" fill="#000000"/>
<path d="M118.276 37.1387L114.897 41.5236H108.873V53.9993H103.657V41.5236H95.7441L99.1214 37.1387H118.276Z" fill="#000000"/>
<path d="M120.253 53.6339L123.403 49.2985H129.212C129.759 49.2985 130.233 49.3156 130.637 49.3499C130.401 49.047 130.129 48.6655 129.817 48.2019C129.506 47.7416 129.208 47.3071 128.922 46.9033L125.899 42.4431L117.985 53.6339H111.809L122.621 38.3849C122.975 37.8973 123.42 37.461 123.957 37.0761C124.496 36.6894 125.176 36.4961 126 36.4961C126.789 36.4961 127.448 36.6757 127.976 37.0367C128.507 37.3977 128.957 37.8477 129.326 38.3849L139.86 53.6339H120.253Z" fill="#000000"/>
<path d="M139.416 37.1387L147.002 48.3295L154.916 37.1387H161.067L150.278 52.3876C149.909 52.8752 149.455 53.3115 148.918 53.6982C148.381 54.0848 147.708 54.2781 146.901 54.2781C146.112 54.2781 145.452 54.0968 144.923 53.7358C144.394 53.3748 143.943 52.9266 143.575 52.3876L133.014 37.1387H139.416Z" fill="#000000"/>
<path d="M178.388 45.3286C179.127 45.5476 179.753 45.977 180.266 46.6152C180.778 47.2533 181.034 48.0763 181.034 49.0857C181.034 49.7905 180.925 50.4424 180.706 51.0378C180.489 51.6349 180.119 52.1515 179.597 52.5878C179.077 53.0258 178.376 53.3697 177.493 53.6212C176.61 53.8727 175.507 53.9993 174.179 53.9993H159.359V43.7426H174.28C174.667 43.7426 175.007 43.6622 175.301 43.5031C175.596 43.344 175.741 43.0446 175.741 42.6083C175.741 42.1875 175.59 41.9017 175.288 41.7512C174.985 41.5989 174.649 41.5236 174.28 41.5236H159.359L162.887 37.1387H174.052C175.062 37.1387 175.974 37.2362 176.788 37.4295C177.602 37.6211 178.299 37.9154 178.879 38.3106C179.459 38.7041 179.905 39.1917 180.215 39.7734C180.526 40.3517 180.682 41.0292 180.682 41.8008C180.682 42.3055 180.614 42.7503 180.48 43.137C180.345 43.5236 180.172 43.8641 179.963 44.1584C179.753 44.4509 179.51 44.6956 179.233 44.8889C178.954 45.0822 178.673 45.2294 178.388 45.3286ZM164.601 47.3457V49.6639H174.205C174.776 49.6639 175.187 49.5647 175.438 49.3628C175.691 49.1609 175.818 48.8667 175.818 48.48C175.818 48.1105 175.691 47.8282 175.438 47.6366C175.187 47.4432 174.776 47.3457 174.205 47.3457H164.601Z" fill="#000000"/>
<path d="M204.811 37.1387L194.805 48.4304V53.9993H189.563V48.4047L179.279 37.1387H185.984L190.017 41.8265C190.152 41.9787 190.328 42.1755 190.545 42.4184C190.764 42.6631 190.992 42.9197 191.228 43.1883C191.462 43.4569 191.681 43.7084 191.882 43.9445C192.083 44.1789 192.225 44.3551 192.311 44.4732C192.479 44.2371 192.722 43.9171 193.042 43.5151C193.361 43.1113 193.822 42.5399 194.427 41.8008L198.258 37.1387H204.811Z" fill="#000000"/>
<path d="M232.037 53.9993H224.148L219.058 49.5647C218.184 48.8085 217.517 48.22 217.055 47.7991C216.591 47.3799 216.218 47.0275 215.932 46.7418C215.95 47.1267 215.967 47.5271 215.984 47.9377C216.001 48.35 216.008 48.7572 216.008 49.161V53.9993H210.766V37.1387H216.008V41.0463C216.008 41.5664 216.001 42.0797 215.984 42.5827C215.967 43.0857 215.941 43.5579 215.908 43.9941C216.244 43.6913 216.651 43.3183 217.13 42.8718C217.609 42.427 218.234 41.8863 219.009 41.2465L223.871 37.1387H231.433L224.981 41.9787C224.427 42.3979 223.934 42.7674 223.506 43.0856C223.079 43.4056 222.696 43.6828 222.36 43.9171C222.023 44.1532 221.717 44.3637 221.44 44.5485C221.163 44.7332 220.889 44.9094 220.62 45.0771C221.108 45.4141 221.696 45.835 222.384 46.338C223.074 46.841 223.965 47.539 225.057 48.4304L232.037 53.9993Z" fill="#000000"/>
<path d="M255.94 53.9993H248.958L245.203 49.539H237.187V53.9993H231.971V45.3799H246.64C247.446 45.3799 248.126 45.2123 248.681 44.8769C249.235 44.5399 249.512 44.078 249.512 43.4894C249.512 42.8342 249.259 42.3431 248.756 42.0164C248.251 41.6879 247.546 41.5236 246.64 41.5236H231.971L235.374 37.1387H246.212C247.168 37.1387 248.159 37.2276 249.184 37.4039C250.21 37.5801 251.143 37.8949 251.983 38.3483C252.823 38.8016 253.516 39.4158 254.061 40.1874C254.607 40.9608 254.879 41.953 254.879 43.1626C254.879 43.8179 254.78 44.439 254.578 45.0275C254.376 45.616 254.087 46.1447 253.709 46.6152C253.331 47.0857 252.869 47.4843 252.323 47.8128C251.776 48.1395 251.16 48.3722 250.47 48.5057C250.756 48.723 251.074 49.0018 251.428 49.3372C251.781 49.6725 252.251 50.1344 252.84 50.723L255.94 53.9993Z" fill="#000000"/>
<path d="M267.429 36.4961C271.528 36.4961 274.606 37.1924 276.666 38.5868C278.724 39.9811 279.752 42.183 279.752 45.189C279.752 48.2138 278.727 50.4243 276.678 51.8186C274.628 53.213 271.545 53.911 267.429 53.911C263.295 53.911 260.207 53.213 258.166 51.8186C256.125 50.4243 255.104 48.2138 255.104 45.189C255.104 42.183 256.128 39.9811 258.18 38.5868C260.229 37.1924 263.312 36.4961 267.429 36.4961ZM267.429 49.5244C268.739 49.5244 269.848 49.4696 270.755 49.3601C271.661 49.2506 272.397 49.0385 272.96 48.7186C273.523 48.3986 273.932 47.9572 274.183 47.396C274.435 46.8332 274.56 46.0975 274.56 45.189C274.56 44.2823 274.435 43.5483 274.183 42.9854C273.932 42.4208 273.523 41.9846 272.96 41.6732C272.397 41.3635 271.661 41.1531 270.755 41.0436C269.848 40.9341 268.739 40.881 267.429 40.881C266.118 40.881 265.008 40.9341 264.101 41.0436C263.194 41.1531 262.459 41.3635 261.896 41.6732C261.333 41.9846 260.926 42.4208 260.674 42.9854C260.421 43.5483 260.296 44.2823 260.296 45.189C260.296 46.0975 260.421 46.8332 260.674 47.396C260.926 47.9572 261.333 48.3986 261.896 48.7186C262.459 49.0385 263.194 49.2506 264.101 49.3601C265.008 49.4696 266.118 49.5244 267.429 49.5244Z" fill="#000000"/>
<path d="M302.142 49.6639L298.789 53.9993H290.321C288.859 53.9993 287.507 53.7803 286.263 53.344C285.02 52.9077 283.948 52.3072 283.049 51.5425C282.15 50.7777 281.445 49.871 280.934 48.8205C280.421 47.77 280.164 46.6323 280.164 45.4056C280.164 44.1789 280.421 43.0566 280.934 42.0403C281.445 41.0241 282.15 40.1515 283.049 39.4193C283.948 38.6887 285.02 38.1258 286.263 37.7306C287.507 37.3371 288.859 37.1387 290.321 37.1387H302.142L298.789 41.5236H290.321C289.615 41.5236 288.961 41.6246 288.356 41.8265C287.75 42.0283 287.228 42.3089 286.792 42.6716C286.356 43.0326 286.012 43.4638 285.759 43.9685C285.507 44.4732 285.38 45.0275 285.38 45.6331C285.38 46.2371 285.504 46.788 285.747 47.2824C285.99 47.7786 286.335 48.2028 286.78 48.557C287.227 48.9094 287.75 49.1815 288.356 49.3748C288.961 49.5681 289.615 49.6639 290.321 49.6639H302.142Z" fill="#000000"/>
<path d="M309.17 53.6339L312.319 49.2985H318.129C318.675 49.2985 319.151 49.3156 319.555 49.3499C319.319 49.047 319.045 48.6655 318.733 48.2019C318.424 47.7416 318.124 47.3071 317.839 46.9033L314.816 42.4431L306.901 53.6339H300.727L311.539 38.3849C311.892 37.8973 312.336 37.461 312.875 37.0761C313.413 36.6894 314.092 36.4961 314.915 36.4961C315.707 36.4961 316.366 36.6757 316.894 37.0367C317.425 37.3977 317.873 37.8477 318.242 38.3849L328.778 53.6339H309.17Z" fill="#000000"/>
<path d="M289.807 35.6295H294.804L298.664 32.6406H294.235L292.355 33.7732L290.474 32.6406H285.947L289.807 35.6295Z" fill="#000000"/>
</svg>
