<svg xmlns="http://www.w3.org/2000/svg" viewBox="0 0 1200 236.33"><defs><style>.cls-1{fill:none;}</style></defs>
<g id="Layer_2" data-name="Layer 2">
<g id="Layer_1-2" data-name="Layer 1">
<polygon class="cls-1" points="135.33 152.12 97.17 152.12 90.52 137.88 33.34 138.91 12.79 104.43 34.37 85.06 28.75 72.99 106.12 8.31 186.19 5.61 191.18 19.33 189.73 21.41 195.55 38.88 198.26 39.92 200.34 46.16 198.88 48.66 205.74 67.58 135.33 152.12"/>
<rect class="cls-1" width="1200" height="236.33"/>
<polygon class="cls-1" points="197.42 140.17 184.32 105.02 205.74 78.86 203.93 74.27 257.41 10 338.64 7.06 341.14 20.79 340.1 22.66 343.84 40.34 345.51 40.34 346.96 47.62 345.92 50.32 350.29 69.66 306.82 152.12 267.31 153.27 262.52 138.51 197.42 140.17"/>
<polygon class="cls-1" points="361.45 140.99 354.24 107.24 353.01 107.24 374.54 61.62 384.44 61.62 407.8 10.75 489.98 8.06 490.84 19.92 490.1 25.43 491.45 41.45 492.67 41.69 493.16 47.32 492.3 51.96 494.14 70.43 476.53 153.83 436.66 154.57 434.46 140.01 433.24 139.89 361.45 140.99"/>
<polygon class="cls-1" points="603.71 156.65 644.68 155.67 648.47 89.87 644.8 51.35 643.09 51.35 643.58 42.06 640.77 10.87 558.34 13.32 553.08 63.58 528.87 64.44 522.26 109.2 524.83 143.19 603.59 141.73 603.71 156.65"/>
<polygon class="cls-1" points="689.2 145.15 680.27 89.63 682.23 66.88 700.81 66.15 703.5 37.04 705.95 37.04 707.29 16.13 790.45 13.2 804.52 44.38 803.05 50.13 804.52 54.04 809.16 54.04 826.16 92.44 811.86 157.99 770.64 159.09 766.36 145.03 689.2 145.15"/>
<polygon class="cls-1" points="928.28 144.54 856.13 145.76 830.08 90.12 835.09 67 840.11 67 846.83 37.29 852.09 37.29 856.86 16.13 939.77 13.32 964.72 44.26 963.74 47.93 968.63 54.65 973.28 54.41 1003.73 91.46 978.66 158.24 937.45 159.46 928.28 144.54"/>
<polygon class="cls-1" points="1090.68 141.66 1015.84 144.05 994.72 115.47 1003.73 91.46 980.35 63.01 990.52 35.27 997.86 35.27 1005.57 13.32 1089.58 11.61 1125.54 41.87 1124.62 44.26 1133.24 52.15 1137.83 51.96 1181.85 89.57 1146.45 155.24 1103.71 157.07 1090.68 141.66"/>
</g></g></svg>